<mxfile host="app.diagrams.net" modified="2023-05-02T14:09:17.787Z" agent="Mozilla/5.0 (Windows NT 10.0; Win64; x64) AppleWebKit/537.36 (KHTML, like Gecko) Chrome/112.0.0.0 Safari/537.36" etag="BQZ1U65LalvYIgb4G2in" version="21.2.3" type="github">
  <diagram name="Page-1" id="Z3g4uYWvn1TSTXRmDf2X">
    <mxGraphModel dx="875" dy="519" grid="1" gridSize="10" guides="1" tooltips="1" connect="1" arrows="1" fold="1" page="1" pageScale="1" pageWidth="850" pageHeight="1100" math="0" shadow="0">
      <root>
        <mxCell id="0" />
        <mxCell id="1" parent="0" />
        <mxCell id="Afo-B2X1lhz9PmUoqlAG-36" value="Issued" style="rounded=1;whiteSpace=wrap;html=1;" parent="1" vertex="1">
          <mxGeometry x="216.5" y="117" width="97.5" height="30" as="geometry" />
        </mxCell>
        <mxCell id="Afo-B2X1lhz9PmUoqlAG-53" style="edgeStyle=orthogonalEdgeStyle;rounded=0;orthogonalLoop=1;jettySize=auto;html=1;exitX=1;exitY=0.5;exitDx=0;exitDy=0;entryX=0;entryY=0.5;entryDx=0;entryDy=0;dashed=1;endArrow=block;endFill=1;" parent="1" source="Afo-B2X1lhz9PmUoqlAG-36" target="Afo-B2X1lhz9PmUoqlAG-38" edge="1">
          <mxGeometry relative="1" as="geometry">
            <mxPoint x="517.75" y="132" as="sourcePoint" />
          </mxGeometry>
        </mxCell>
        <mxCell id="Afo-B2X1lhz9PmUoqlAG-54" style="edgeStyle=orthogonalEdgeStyle;rounded=0;orthogonalLoop=1;jettySize=auto;html=1;exitX=1;exitY=0.5;exitDx=0;exitDy=0;dashed=1;endArrow=block;endFill=1;" parent="1" source="Afo-B2X1lhz9PmUoqlAG-38" target="Afo-B2X1lhz9PmUoqlAG-40" edge="1">
          <mxGeometry relative="1" as="geometry" />
        </mxCell>
        <mxCell id="Afo-B2X1lhz9PmUoqlAG-38" value="Trading" style="rounded=1;whiteSpace=wrap;html=1;" parent="1" vertex="1">
          <mxGeometry x="424.94" y="117" width="97.5" height="30" as="geometry" />
        </mxCell>
        <mxCell id="Afo-B2X1lhz9PmUoqlAG-40" value="Delivered" style="rounded=1;whiteSpace=wrap;html=1;" parent="1" vertex="1">
          <mxGeometry x="634.94" y="117" width="97.5" height="30" as="geometry" />
        </mxCell>
        <mxCell id="Afo-B2X1lhz9PmUoqlAG-51" style="edgeStyle=orthogonalEdgeStyle;rounded=0;orthogonalLoop=1;jettySize=auto;html=1;exitX=1;exitY=0.5;exitDx=0;exitDy=0;dashed=1;" parent="1" source="Afo-B2X1lhz9PmUoqlAG-49" target="Afo-B2X1lhz9PmUoqlAG-36" edge="1">
          <mxGeometry relative="1" as="geometry" />
        </mxCell>
        <mxCell id="Afo-B2X1lhz9PmUoqlAG-49" value="" style="ellipse;shape=doubleEllipse;html=1;dashed=0;whiteSpace=wrap;aspect=fixed;" parent="1" vertex="1">
          <mxGeometry x="109" y="122" width="20" height="20" as="geometry" />
        </mxCell>
        <mxCell id="Afo-B2X1lhz9PmUoqlAG-56" value="(nil)" style="rounded=0;whiteSpace=wrap;html=1;" parent="1" vertex="1">
          <mxGeometry x="79" y="167" width="80" height="223" as="geometry" />
        </mxCell>
        <mxCell id="Afo-B2X1lhz9PmUoqlAG-57" value="&lt;div style=&quot;font-size: 11px;&quot;&gt;&lt;font face=&quot;Helvetica&quot;&gt;&lt;b&gt;id&lt;/b&gt;: 0001&lt;/font&gt;&lt;/div&gt;&lt;div style=&quot;&quot;&gt;&lt;font face=&quot;Helvetica&quot;&gt;&lt;b&gt;issuer&lt;/b&gt;: PT. A&lt;br&gt;&lt;/font&gt;&lt;/div&gt;&lt;div style=&quot;font-size: 11px;&quot;&gt;&lt;font face=&quot;Helvetica&quot;&gt;&lt;b&gt;owner&lt;/b&gt;: PT. A&lt;/font&gt;&lt;/div&gt;&lt;div style=&quot;font-size: 11px;&quot;&gt;&lt;div&gt;&lt;font face=&quot;Helvetica&quot;&gt;&lt;b&gt;issueDate&lt;/b&gt;: 2023-05-31&lt;/font&gt;&lt;/div&gt;&lt;div&gt;&lt;span style=&quot;background-color: initial;&quot;&gt;&lt;font face=&quot;Helvetica&quot;&gt;&lt;b&gt;maturityDate&lt;/b&gt;: 2023-11-30&lt;/font&gt;&lt;/span&gt;&lt;/div&gt;&lt;div&gt;&lt;font face=&quot;Helvetica&quot;&gt;&lt;b&gt;quantity&lt;/b&gt;: 10000&lt;/font&gt;&lt;/div&gt;&lt;div&gt;&lt;font face=&quot;Helvetica&quot;&gt;&lt;b&gt;commodity&lt;/b&gt;: CPO&lt;/font&gt;&lt;/div&gt;&lt;div&gt;&lt;font face=&quot;Helvetica&quot;&gt;&lt;b&gt;lotNumber&lt;/b&gt;: 0001&lt;/font&gt;&lt;/div&gt;&lt;div&gt;&lt;font face=&quot;Helvetica&quot;&gt;&lt;b&gt;quality&lt;/b&gt;: Grade A&lt;/font&gt;&lt;/div&gt;&lt;div&gt;&lt;font face=&quot;Helvetica&quot;&gt;&lt;b&gt;producer&lt;/b&gt;: PTPN&lt;/font&gt;&lt;/div&gt;&lt;div&gt;&lt;font face=&quot;Helvetica&quot;&gt;&lt;b&gt;certification&lt;/b&gt;: RSPO&lt;/font&gt;&lt;/div&gt;&lt;div&gt;&lt;font face=&quot;Helvetica&quot;&gt;&lt;b&gt;portOfLoading&lt;/b&gt;: Talang Duku&lt;/font&gt;&lt;/div&gt;&lt;div&gt;&lt;font face=&quot;Helvetica&quot;&gt;&lt;b&gt;deliveryConditions&lt;/b&gt;: FOB&lt;/font&gt;&lt;/div&gt;&lt;div&gt;&lt;font face=&quot;Helvetica&quot;&gt;&lt;b&gt;status&lt;/b&gt;: issued&lt;/font&gt;&lt;/div&gt;&lt;/div&gt;" style="rounded=0;whiteSpace=wrap;html=1;align=left;fontFamily=Verdana;labelBackgroundColor=none;spacingLeft=5;fontSize=11;spacingTop=0;spacing=2;" parent="1" vertex="1">
          <mxGeometry x="178.06" y="167" width="174.38" height="223" as="geometry" />
        </mxCell>
        <mxCell id="Afo-B2X1lhz9PmUoqlAG-67" value="&lt;div style=&quot;font-size: 11px;&quot;&gt;&lt;div style=&quot;border-color: var(--border-color);&quot;&gt;&lt;font style=&quot;border-color: var(--border-color);&quot; face=&quot;Helvetica&quot;&gt;&lt;b style=&quot;border-color: var(--border-color);&quot;&gt;id&lt;/b&gt;: 0001&lt;/font&gt;&lt;/div&gt;&lt;div style=&quot;border-color: var(--border-color);&quot;&gt;&lt;font style=&quot;border-color: var(--border-color);&quot; face=&quot;Helvetica&quot;&gt;&lt;b style=&quot;border-color: var(--border-color);&quot;&gt;issuer&lt;/b&gt;: PT. A&lt;br style=&quot;border-color: var(--border-color);&quot;&gt;&lt;/font&gt;&lt;/div&gt;&lt;div style=&quot;border-color: var(--border-color);&quot;&gt;&lt;font style=&quot;border-color: var(--border-color);&quot; face=&quot;Helvetica&quot;&gt;&lt;b style=&quot;border-color: var(--border-color);&quot;&gt;owner&lt;/b&gt;: PT. B&lt;/font&gt;&lt;/div&gt;&lt;div style=&quot;border-color: var(--border-color);&quot;&gt;&lt;div style=&quot;border-color: var(--border-color);&quot;&gt;&lt;font style=&quot;border-color: var(--border-color);&quot; face=&quot;Helvetica&quot;&gt;&lt;b style=&quot;border-color: var(--border-color);&quot;&gt;issueDate&lt;/b&gt;: 2023-05-31&lt;/font&gt;&lt;/div&gt;&lt;div style=&quot;border-color: var(--border-color);&quot;&gt;&lt;font style=&quot;border-color: var(--border-color);&quot; face=&quot;Helvetica&quot;&gt;&lt;b style=&quot;border-color: var(--border-color);&quot;&gt;maturityDate&lt;/b&gt;: 2023-11-30&lt;/font&gt;&lt;/div&gt;&lt;div style=&quot;border-color: var(--border-color);&quot;&gt;&lt;font style=&quot;border-color: var(--border-color);&quot; face=&quot;Helvetica&quot;&gt;&lt;b style=&quot;border-color: var(--border-color);&quot;&gt;quantity&lt;/b&gt;: 10000&lt;/font&gt;&lt;/div&gt;&lt;div style=&quot;border-color: var(--border-color);&quot;&gt;&lt;font style=&quot;border-color: var(--border-color);&quot; face=&quot;Helvetica&quot;&gt;&lt;b style=&quot;border-color: var(--border-color);&quot;&gt;commodity&lt;/b&gt;: CPO&lt;/font&gt;&lt;/div&gt;&lt;div style=&quot;border-color: var(--border-color);&quot;&gt;&lt;font style=&quot;border-color: var(--border-color);&quot; face=&quot;Helvetica&quot;&gt;&lt;b style=&quot;border-color: var(--border-color);&quot;&gt;lotNumber&lt;/b&gt;: LOT001&lt;/font&gt;&lt;/div&gt;&lt;div style=&quot;border-color: var(--border-color);&quot;&gt;&lt;font style=&quot;border-color: var(--border-color);&quot; face=&quot;Helvetica&quot;&gt;&lt;b style=&quot;border-color: var(--border-color);&quot;&gt;quality&lt;/b&gt;: Grade A&lt;/font&gt;&lt;/div&gt;&lt;div style=&quot;border-color: var(--border-color);&quot;&gt;&lt;font style=&quot;border-color: var(--border-color);&quot; face=&quot;Helvetica&quot;&gt;&lt;b style=&quot;border-color: var(--border-color);&quot;&gt;producer&lt;/b&gt;: PTPN&lt;/font&gt;&lt;/div&gt;&lt;div style=&quot;border-color: var(--border-color);&quot;&gt;&lt;font style=&quot;border-color: var(--border-color);&quot; face=&quot;Helvetica&quot;&gt;&lt;b style=&quot;border-color: var(--border-color);&quot;&gt;certification&lt;/b&gt;: RSPO&lt;/font&gt;&lt;/div&gt;&lt;div style=&quot;border-color: var(--border-color);&quot;&gt;&lt;font style=&quot;border-color: var(--border-color);&quot; face=&quot;Helvetica&quot;&gt;&lt;b style=&quot;border-color: var(--border-color);&quot;&gt;portOfLoading&lt;/b&gt;: Talang Duku&lt;/font&gt;&lt;/div&gt;&lt;div style=&quot;border-color: var(--border-color);&quot;&gt;&lt;font style=&quot;border-color: var(--border-color);&quot; face=&quot;Helvetica&quot;&gt;&lt;b style=&quot;border-color: var(--border-color);&quot;&gt;deliveryConditions&lt;/b&gt;: FOB&lt;/font&gt;&lt;/div&gt;&lt;div style=&quot;border-color: var(--border-color);&quot;&gt;&lt;b&gt;price&lt;/b&gt;: 12000&lt;/div&gt;&lt;div style=&quot;border-color: var(--border-color);&quot;&gt;&lt;font style=&quot;border-color: var(--border-color);&quot; face=&quot;Helvetica&quot;&gt;&lt;b style=&quot;border-color: var(--border-color);&quot;&gt;status&lt;/b&gt;: trading&lt;/font&gt;&lt;/div&gt;&lt;/div&gt;&lt;/div&gt;" style="rounded=0;whiteSpace=wrap;html=1;align=left;fontFamily=Verdana;labelBackgroundColor=none;spacingLeft=5;fontSize=11;" parent="1" vertex="1">
          <mxGeometry x="386.5" y="167" width="174.38" height="223" as="geometry" />
        </mxCell>
        <mxCell id="Afo-B2X1lhz9PmUoqlAG-68" value="&lt;div style=&quot;font-size: 11px;&quot;&gt;&lt;div style=&quot;border-color: var(--border-color);&quot;&gt;&lt;div style=&quot;border-color: var(--border-color);&quot;&gt;&lt;font style=&quot;border-color: var(--border-color);&quot; face=&quot;Helvetica&quot;&gt;&lt;b style=&quot;border-color: var(--border-color);&quot;&gt;id&lt;/b&gt;: 0001&lt;/font&gt;&lt;/div&gt;&lt;div style=&quot;border-color: var(--border-color);&quot;&gt;&lt;font style=&quot;border-color: var(--border-color);&quot; face=&quot;Helvetica&quot;&gt;&lt;b style=&quot;border-color: var(--border-color);&quot;&gt;issuer&lt;/b&gt;: PT. A&lt;br style=&quot;border-color: var(--border-color);&quot;&gt;&lt;/font&gt;&lt;/div&gt;&lt;div style=&quot;border-color: var(--border-color);&quot;&gt;&lt;font style=&quot;border-color: var(--border-color);&quot; face=&quot;Helvetica&quot;&gt;&lt;b style=&quot;border-color: var(--border-color);&quot;&gt;owner&lt;/b&gt;: PT. B&lt;/font&gt;&lt;/div&gt;&lt;div style=&quot;border-color: var(--border-color);&quot;&gt;&lt;div style=&quot;border-color: var(--border-color);&quot;&gt;&lt;font style=&quot;border-color: var(--border-color);&quot; face=&quot;Helvetica&quot;&gt;&lt;b style=&quot;border-color: var(--border-color);&quot;&gt;issueDate&lt;/b&gt;: 2023-05-31&lt;/font&gt;&lt;/div&gt;&lt;div style=&quot;border-color: var(--border-color);&quot;&gt;&lt;font style=&quot;border-color: var(--border-color);&quot; face=&quot;Helvetica&quot;&gt;&lt;b style=&quot;border-color: var(--border-color);&quot;&gt;maturityDate&lt;/b&gt;: 2023-11-30&lt;/font&gt;&lt;/div&gt;&lt;div style=&quot;border-color: var(--border-color);&quot;&gt;&lt;font style=&quot;border-color: var(--border-color);&quot; face=&quot;Helvetica&quot;&gt;&lt;b style=&quot;border-color: var(--border-color);&quot;&gt;quantity&lt;/b&gt;: 10000&lt;/font&gt;&lt;/div&gt;&lt;div style=&quot;border-color: var(--border-color);&quot;&gt;&lt;font style=&quot;border-color: var(--border-color);&quot; face=&quot;Helvetica&quot;&gt;&lt;b style=&quot;border-color: var(--border-color);&quot;&gt;commodity&lt;/b&gt;: CPO&lt;/font&gt;&lt;/div&gt;&lt;div style=&quot;border-color: var(--border-color);&quot;&gt;&lt;font style=&quot;border-color: var(--border-color);&quot; face=&quot;Helvetica&quot;&gt;&lt;b style=&quot;border-color: var(--border-color);&quot;&gt;lotNumber&lt;/b&gt;: 0001&lt;/font&gt;&lt;/div&gt;&lt;div style=&quot;border-color: var(--border-color);&quot;&gt;&lt;font style=&quot;border-color: var(--border-color);&quot; face=&quot;Helvetica&quot;&gt;&lt;b style=&quot;border-color: var(--border-color);&quot;&gt;quality&lt;/b&gt;: Grade A&lt;/font&gt;&lt;/div&gt;&lt;div style=&quot;border-color: var(--border-color);&quot;&gt;&lt;font style=&quot;border-color: var(--border-color);&quot; face=&quot;Helvetica&quot;&gt;&lt;b style=&quot;border-color: var(--border-color);&quot;&gt;producer&lt;/b&gt;: PTPN&lt;/font&gt;&lt;/div&gt;&lt;div style=&quot;border-color: var(--border-color);&quot;&gt;&lt;font style=&quot;border-color: var(--border-color);&quot; face=&quot;Helvetica&quot;&gt;&lt;b style=&quot;border-color: var(--border-color);&quot;&gt;certification&lt;/b&gt;: RSPO&lt;/font&gt;&lt;/div&gt;&lt;div style=&quot;border-color: var(--border-color);&quot;&gt;&lt;font style=&quot;border-color: var(--border-color);&quot; face=&quot;Helvetica&quot;&gt;&lt;b style=&quot;border-color: var(--border-color);&quot;&gt;portOfLoading&lt;/b&gt;: Talang Duku&lt;/font&gt;&lt;/div&gt;&lt;div style=&quot;border-color: var(--border-color);&quot;&gt;&lt;font style=&quot;border-color: var(--border-color);&quot; face=&quot;Helvetica&quot;&gt;&lt;b style=&quot;border-color: var(--border-color);&quot;&gt;deliveryConditions&lt;/b&gt;: FOB&lt;/font&gt;&lt;/div&gt;&lt;div style=&quot;border-color: var(--border-color);&quot;&gt;&lt;b style=&quot;border-color: var(--border-color);&quot;&gt;price&lt;/b&gt;: 12000&lt;/div&gt;&lt;div style=&quot;border-color: var(--border-color);&quot;&gt;&lt;font style=&quot;border-color: var(--border-color);&quot; face=&quot;Helvetica&quot;&gt;&lt;b style=&quot;border-color: var(--border-color);&quot;&gt;status&lt;/b&gt;: delivered&lt;/font&gt;&lt;/div&gt;&lt;/div&gt;&lt;/div&gt;&lt;/div&gt;" style="rounded=0;whiteSpace=wrap;html=1;align=left;fontFamily=Verdana;labelBackgroundColor=none;spacingLeft=5;fontSize=11;" parent="1" vertex="1">
          <mxGeometry x="596.5" y="167" width="174.38" height="223" as="geometry" />
        </mxCell>
        <mxCell id="MJhWYfrW8yjqu5FU51jU-1" value="Submit" style="text;html=1;strokeColor=none;fillColor=none;align=center;verticalAlign=middle;whiteSpace=wrap;rounded=0;" parent="1" vertex="1">
          <mxGeometry x="139" y="100" width="60" height="30" as="geometry" />
        </mxCell>
        <mxCell id="MJhWYfrW8yjqu5FU51jU-4" value="Deliver" style="text;html=1;strokeColor=none;fillColor=none;align=center;verticalAlign=middle;whiteSpace=wrap;rounded=0;" parent="1" vertex="1">
          <mxGeometry x="544.94" y="100" width="60" height="30" as="geometry" />
        </mxCell>
        <mxCell id="AdlBNiU6N3Yqm_l1RB0n-1" value="Trade" style="text;html=1;strokeColor=none;fillColor=none;align=center;verticalAlign=middle;whiteSpace=wrap;rounded=0;" parent="1" vertex="1">
          <mxGeometry x="339" y="100" width="60" height="30" as="geometry" />
        </mxCell>
      </root>
    </mxGraphModel>
  </diagram>
</mxfile>
